<svg width="512" height="512" viewBox="0 0 512 512" fill="none" xmlns="http://www.w3.org/2000/svg">
<circle cx="256" cy="256" r="256" fill="#2C2C2C"/>
<path d="M372.426 161.588H417.525V292.449C417.464 304.709 414.537 315.429 408.746 324.609C402.955 333.728 394.945 340.813 384.718 345.865C374.552 350.917 362.784 353.443 349.415 353.443C337.586 353.443 326.835 351.379 317.162 347.251C307.55 343.123 299.88 336.716 294.15 328.029C288.482 319.342 285.679 308.221 285.74 294.667H331.301C331.486 299.534 332.41 303.693 334.074 307.143C335.799 310.531 338.171 313.088 341.19 314.813C344.209 316.538 347.813 317.401 352.003 317.401C356.377 317.401 360.073 316.477 363.092 314.629C366.111 312.719 368.391 309.915 369.931 306.219C371.533 302.522 372.365 297.932 372.426 292.449V161.588Z" fill="white"/>
<path d="M220.24 223.414C219.193 219.532 217.653 216.113 215.619 213.156C213.586 210.137 211.091 207.58 208.134 205.485C205.176 203.39 201.788 201.819 197.968 200.772C194.148 199.663 189.959 199.109 185.399 199.109C176.219 199.109 168.272 201.327 161.556 205.762C154.902 210.198 149.758 216.668 146.123 225.17C142.488 233.611 140.67 243.869 140.67 255.944C140.67 268.082 142.426 278.432 145.938 286.996C149.45 295.56 154.532 302.091 161.186 306.588C167.84 311.086 175.911 313.335 185.399 313.335C193.778 313.335 200.864 311.979 206.655 309.268C212.508 306.496 216.944 302.584 219.963 297.532C222.982 292.479 224.491 286.534 224.491 279.695L232.994 280.712H186.97V247.35H268.574V272.394C268.574 289.337 264.97 303.847 257.761 315.922C250.614 327.998 240.757 337.27 228.188 343.74C215.681 350.209 201.295 353.443 185.03 353.443C166.978 353.443 151.113 349.531 137.436 341.706C123.758 333.882 113.099 322.73 105.46 308.252C97.8199 293.712 94 276.461 94 256.499C94 240.973 96.3104 227.203 100.931 215.189C105.552 203.113 111.99 192.886 120.246 184.507C128.564 176.128 138.175 169.782 149.08 165.469C160.047 161.156 171.845 159 184.475 159C195.442 159 205.639 160.571 215.065 163.713C224.553 166.855 232.932 171.291 240.202 177.021C247.534 182.751 253.479 189.559 258.038 197.445C262.598 205.331 265.432 213.988 266.541 223.414H220.24Z" fill="white"/>
<rect x="207" y="381" width="26" height="26" rx="4" fill="#6DB867"/>
<rect x="243" y="381" width="26" height="26" rx="4" fill="#F3A348"/>
<rect x="279" y="381" width="26" height="26" rx="4" fill="#54A7E8"/>
</svg>
