<svg width="512" height="512" viewBox="0 0 512 512" fill="none" xmlns="http://www.w3.org/2000/svg">
<circle cx="256" cy="256" r="256" fill="#629FBC"/>
<path d="M103.85 223.965L106.616 227.569C101.361 227.569 95.8297 227.015 95 224.797V223.965C97.7656 223.411 100.531 223.411 104.127 223.411L103.85 223.965ZM132.059 235.608L133.166 239.489H130.4L130.953 235.608H132.059ZM142.016 263.884C139.25 266.378 137.314 267.764 135.931 271.645C133.719 269.705 132.612 266.101 131.783 262.22L130.4 249.746V247.805H133.442L141.186 262.22L142.016 263.884ZM138.144 227.846C138.5 225.073 138.868 222.3 139.25 219.53H140.356L138.144 227.846ZM135.931 191.809L149.759 195.413V196.244C143.398 200.957 137.314 202.897 134.272 211.768L135.378 192.363L135.931 191.809ZM148.93 171.85C148.1 180.721 149.483 184.602 150.866 190.146C153.631 192.086 154.461 192.918 153.631 195.69C149.483 193.75 145.058 191.532 138.697 191.809L138.144 191.255C140.08 184.324 143.675 179.889 146.164 174.345L148.93 171.573V171.85ZM169.119 159.93H169.672C167.736 166.306 166.906 181.552 163.587 187.651C155.567 184.047 155.844 167.692 164.694 161.316L169.119 159.93ZM161.652 208.719L168.289 216.204C165.523 224.243 160.822 230.064 158.609 239.489H154.738C151.419 229.787 159.716 214.54 161.098 207.61L167.459 208.442L169.672 213.986L161.652 208.719ZM179.905 160.207C179.352 167.969 181.011 171.85 181.564 177.949L169.672 184.047C170.502 174.068 172.438 167.415 175.203 160.484L179.905 160.207ZM184.606 148.287H185.436L184.053 151.891H181.288L183.5 149.673L184.606 148.287ZM185.436 184.602C181.564 187.374 177.416 189.591 173.544 192.086C173.82 187.651 179.352 181.552 184.053 179.889L185.159 180.721V184.602H185.436ZM193.18 157.158L191.244 169.355L189.031 170.741L187.648 172.127C185.713 169.078 184.883 161.593 185.436 156.049L193.18 157.158ZM201.2 148.01V148.564L198.158 151.336C195.945 152.168 195.945 152.168 193.18 152.168L194.286 148.01H201.2ZM208.944 132.209L205.625 140.248L193.18 139.139V138.585C198.434 136.367 202.859 133.595 208.944 132.209ZM202.583 152.723L203.966 152.168L205.072 156.049C203.689 156.049 202.306 155.495 201.2 155.217L202.583 152.723ZM212.816 164.643C208.114 166.583 201.753 166.029 197.881 167.969L197.328 163.256L199.541 160.207C203.689 161.593 207.838 162.979 211.433 164.643H212.816ZM202.859 171.85H197.328V170.464C200.923 168.801 207.284 168.801 212.816 167.969L207.008 171.296L202.859 171.85ZM216.688 171.85C212.156 173.556 208.151 176.423 205.072 180.166C204.519 176.285 211.433 169.91 214.752 167.969C216.134 169.355 216.411 169.355 216.964 171.85H216.688ZM224.984 124.17L224.708 124.724L220.006 127.496L212.816 128.051V127.496L224.708 124.17H224.984ZM218.347 136.09L216.964 133.872C220.283 131.1 228.027 132.486 232.728 133.041L218.347 136.09ZM253.47 124.17C260.108 124.724 266.192 126.11 270.617 129.16H272L271.17 129.991L264.809 131.932L253.747 130.269L228.856 126.665V126.11C236.877 124.447 245.45 123.338 253.747 124.17H253.47ZM279.744 121.952L278.361 123.893C274.645 123.628 271.088 122.279 268.128 120.012L279.744 121.398V121.952ZM300.762 136.644L304.081 135.536L307.4 138.308C306.847 141.634 303.805 144.406 301.316 147.733H299.38C294.125 139.416 287.764 129.991 276.425 126.665L275.872 125.833L280.573 123.893C288.317 126.665 294.402 130.546 301.869 133.041C302.698 135.258 302.422 134.427 300.762 136.644ZM310.166 155.772L309.336 154.663H307.4L310.719 151.891L310.166 155.772ZM313.761 199.571C319.292 204.284 320.398 210.937 318.186 219.53L311.272 204.561L313.484 200.957V199.848L313.761 199.571ZM315.144 163.811V164.643L312.378 167.692L311.272 165.751C312.931 162.702 311.825 164.365 314.037 163.811H315.144ZM318.463 163.811L330.908 168.523V169.632L327.866 171.85L315.144 167.137V166.029L318.463 163.811ZM342.8 179.612L335.886 175.177L335.056 173.236C337.822 171.573 337.545 171.573 340.588 172.127L342.8 179.612ZM346.672 178.226L345.289 179.612C343.63 178.78 343.353 177.671 342.8 175.731L346.395 177.394L346.672 178.226ZM343.906 166.86H342.8L346.119 163.811L343.906 166.583V166.86ZM362.436 186.819L360.5 187.651L349.991 181.83L346.672 177.394C352.203 173.236 352.203 177.949 357.734 180.443L362.436 186.819ZM366.584 190.7L362.713 189.314L365.202 187.928L366.584 190.7ZM361.883 197.076C363.266 199.848 363.266 199.294 366.584 198.739L360.777 204.006C358.844 200.124 356.908 196.243 354.969 192.363C359.117 191.255 360.5 192.918 364.648 193.472L366.308 196.244L361.883 197.076ZM362.713 204.284L370.733 199.848C369.073 203.452 367.137 205.392 364.648 208.164L362.713 204.284ZM378.477 219.53C376.264 221.471 374.881 222.025 371.009 222.302L374.328 222.579V223.134L363.266 227.846L362.713 213.709L370.456 204.561L371.839 204.006L378.477 219.53ZM374.605 197.63C396.177 191.532 392.028 203.175 382.348 212.045L374.605 197.63ZM394.241 199.848C386.22 237.549 384.838 239.766 356.352 255.844L354.969 253.627L355.798 249.469C374.328 243.924 384.837 234.499 383.731 212.6L393.134 200.68L394.241 199.848ZM395.347 199.848L394.241 195.967H397.006L395.347 199.848ZM346.948 236.44C347.119 233.944 347.304 231.449 347.502 228.955L350.267 227.846H350.544C351.373 232.559 350.544 236.163 349.161 239.766C347.778 238.935 347.502 238.657 346.948 236.44ZM330.908 271.091V270.537L336.439 258.062L337.269 255.29L346.395 256.122L346.672 258.062C347.225 262.775 345.566 266.378 343.906 271.645L330.631 271.091H330.908ZM335.056 287.169C335.052 284.582 335.052 281.995 335.056 279.407L341.97 279.962H342.8L338.375 287.446H335.056V287.169ZM331.184 261.389H331.461L334.503 259.448H335.056L334.503 261.111L332.567 267.487L330.908 261.943V261.389H331.184ZM324.823 281.348L323.164 279.407C324.823 280.793 323.717 279.407 324.823 281.348ZM315.144 276.635C317.356 275.249 319.845 275.526 323.164 275.526L322.058 278.853C319.292 279.962 319.292 279.407 315.973 279.13L315.144 276.358V276.635ZM320.122 291.327L322.887 298.535L315.973 303.525C314.037 300.752 316.25 292.436 320.122 291.327ZM312.378 266.378H311.272L312.655 263.606L312.378 266.378ZM323.441 267.487L323.164 267.21L324.823 263.606H325.377L327.036 267.487H323.717H323.441ZM351.097 215.649L350.82 214.263C351.663 213.061 352.808 212.105 354.139 211.491L354.692 214.263L352.203 215.649H350.82H351.097ZM350.82 225.351C349.991 226.46 348.608 226.737 348.055 227.569L346.672 207.61L350.82 225.351ZM343.353 252.241C346.119 250.578 346.395 252.241 346.672 255.567H338.928V254.181L343.353 252.241ZM339.481 241.152L341.417 239.489L342.8 242.261L342.247 243.647L338.928 243.093L339.481 241.152ZM338.928 251.686L334.78 255.567L332.014 255.013H330.908L332.844 251.686H338.928ZM323.994 249.469C322.334 248.36 323.441 248.36 323.164 247.528L323.994 249.469ZM336.439 231.727L323.164 224.797C323.717 215.649 324.823 205.115 323.994 195.69C334.227 199.571 343.353 216.204 336.439 231.727ZM327.036 231.727C330.355 233.391 330.078 235.054 334.78 236.44C335.609 239.212 334.227 240.321 332.291 243.647H327.866C326.759 238.103 327.866 235.331 327.312 231.727H327.036ZM327.866 257.508C326.206 256.399 327.589 256.399 327.312 255.567L327.866 257.508ZM354.692 218.976V218.421L358.287 215.926C358.841 220.084 358.564 227.015 357.734 232.004C355.522 230.341 354.969 223.411 354.692 219.253V218.976ZM354.692 231.727L356.905 227.569L355.522 231.45H354.692V231.727ZM377.647 219.807H378.2C378.2 235.054 369.073 237.826 356.628 243.37H354.692L362.436 227.569L377.647 219.807ZM354.139 189.869L354.692 190.977L353.586 191.809L350.82 187.651L354.139 189.869ZM350.82 196.522V195.69H351.65L354.416 199.571C352.48 198.739 351.927 198.462 350.82 196.522ZM354.692 206.778L349.161 211.768L338.098 195.136L323.164 182.384L326.483 179.612C333.673 182.938 345.842 188.76 348.608 196.244C349.437 198.462 346.672 200.403 348.608 202.343C350.82 204.838 353.033 203.175 354.692 206.778ZM321.505 231.727L322.611 232.004L323.164 243.647L321.228 243.093C319.569 241.984 318.463 235.885 319.845 233.391L321.505 231.727ZM312.655 251.686H314.037L315.144 254.458L313.208 255.567H311.272L312.655 251.686ZM309.059 315.445L307.4 309.623C309.981 309.07 312.563 308.515 315.144 307.96L309.059 315.445ZM303.528 299.366C304.081 297.149 304.634 296.594 306.017 295.485L307.123 295.763L307.4 296.872L304.911 299.366H303.528ZM305.188 303.525L303.528 301.307L307.4 299.366L306.294 303.247H305.188V303.525ZM301.039 321.543L299.656 320.157H300.762L306.847 315.445L307.4 320.157L302.698 323.484L301.039 321.543ZM301.592 367.283C291.912 367.56 286.381 365.342 278.637 364.511L269.788 347.046L268.128 345.383C282.786 343.443 292.189 336.235 303.252 331.523C307.123 335.126 315.973 353.699 308.23 362.293C306.294 365.065 304.358 365.342 301.592 367.283ZM260.661 347.601L264.256 347.324C269.788 350.927 273.383 357.303 275.872 363.402L260.108 358.689C261.366 355.126 261.558 351.272 260.661 347.601ZM249.598 332.354L267.298 327.365L294.955 330.137L295.508 331.523C287.211 335.126 277.808 338.453 268.405 343.166C257.895 343.997 255.406 340.393 248.492 337.621C248.492 335.958 249.045 334.295 249.598 332.354ZM248.492 351.205V347.878L255.406 347.324C255.959 350.096 256.513 352.036 255.683 355.363L248.492 351.205ZM240.472 357.58L243.238 356.194C246.28 353.977 248.769 356.749 252.364 357.858L250.981 359.244L240.472 357.58ZM248.216 351.205L245.45 350.096L244.344 347.324H248.492L248.216 351.205ZM236.6 351.205L240.472 354.808L239.919 359.244L236.6 351.482V351.205ZM226.367 336.235C229.963 335.126 234.941 335.404 240.472 335.404L235.217 339.285L224.708 338.176L226.367 336.235ZM216.964 136.644C224.155 129.437 242.408 131.377 247.109 135.813H248.492C242.131 141.357 232.728 142.189 226.92 147.733C222.495 144.961 218.623 142.743 216.964 136.644ZM257.066 147.733L260.108 151.336L251.811 151.891C245.173 152.445 238.812 153.554 234.111 155.772H233.834L233.005 154.386C240.368 150.531 248.489 148.354 256.789 148.01H257.342L257.066 147.733ZM272.277 127.774C277.531 133.041 284.998 136.09 287.764 143.852C276.978 138.862 260.661 138.862 252.364 131.1C255.731 131.97 259.242 132.124 262.672 131.551C266.102 130.978 269.373 129.691 272.277 127.774ZM275.872 155.772L290.53 157.712H291.636L280.02 167.692C278.084 164.088 277.531 159.098 275.872 155.772ZM294.678 172.959L291.912 172.404L295.508 171.85L294.678 172.959ZM291.912 163.256L295.231 159.93L295.508 163.811L292.742 163.256H291.636H291.912ZM298.827 295.485H297.167L295.508 294.099L296.614 292.436C297.72 292.436 298.55 291.882 299.38 291.327L298.827 295.485ZM295.784 302.693L297.167 301.03V299.366L299.656 302.97L295.508 303.525V302.693H295.784ZM294.125 315.445L291.636 312.672L299.656 311.286L295.784 315.167H294.125V315.445ZM295.508 327.365L287.764 326.533L293.295 323.484L295.508 327.365ZM289.977 316.276L291.636 317.662L286.105 319.048L279.744 319.325L288.317 315.445L289.977 315.999V316.276ZM267.852 143.852C272.553 143.852 277.531 145.238 279.744 147.733C276.702 147.733 270.894 148.01 269.511 145.515L268.128 143.852H267.852ZM272 159.93C274.213 161.87 275.042 164.088 274.766 167.692C271.17 166.583 272 162.702 272 159.93ZM275.872 184.879V184.324C283.892 182.661 285.552 185.156 281.956 187.651C279.664 187.48 277.507 186.498 275.872 184.879ZM286.105 287.446L287.764 288.001V288.555L283.892 291.327L285.275 287.446H286.105ZM283.892 190.146L286.658 187.651L287.764 191.809L283.892 190.977V190.146ZM295.508 296.872L286.105 299.366H283.892V299.089C286.84 298.632 289.611 297.387 291.912 295.485L295.231 296.04L295.508 296.872ZM288.87 287.446L287.764 285.229L290.53 283.565L291.636 284.12L289.977 287.446H288.87ZM263.98 315.167L268.681 311.286L283.339 312.672L283.892 313.781L273.936 319.325C270.654 318.881 267.626 317.314 265.363 314.89H263.98V315.167ZM256.789 315.167L263.98 319.325L252.364 317.385L256.789 315.445V315.167ZM256.236 323.484V324.592L254.023 325.701H252.364V324.87C254.023 322.652 253.747 323.484 256.236 323.484ZM237.706 161.039L236.6 160.207C241.675 158.012 247.116 156.79 252.641 156.603L266.192 156.049L268.128 167.969L252.641 166.583C248.024 166.368 243.397 166.554 238.813 167.137L237.706 161.593V161.039ZM243.238 321.266L244.344 322.929L243.514 326.533L232.452 327.365C233.834 323.761 235.494 322.098 237.43 319.325L243.514 321.266H243.238ZM229.962 307.405C224.984 307.405 218.347 303.525 216.964 299.366L232.728 303.525L229.962 307.405ZM235.494 307.405H232.728V306.574L236.047 303.525L235.494 307.128V307.405ZM224.708 161.316L229.409 159.93L232.728 163.534H229.409L224.708 161.316ZM224.708 332.632L223.878 335.404H222.772L220.836 331.245L224.708 331.8V332.632ZM226.92 315.445L236.047 317.385L236.6 318.494L229.409 327.365L220.836 325.979L226.92 315.445ZM295.508 190.423L297.444 187.651H297.997L302.975 189.037L303.528 189.591L297.997 191.809L295.508 190.423ZM306.294 177.394L303.528 175.731C306.294 176.84 304.634 175.731 306.294 177.394ZM305.464 195.69L303.528 194.027L307.4 191.809L305.464 195.69ZM303.528 223.411C305.464 224.243 307.4 224.52 309.613 225.074C311.272 225.906 311.272 225.906 311.272 227.846C308.506 226.737 304.358 225.906 303.528 223.688V223.411ZM304.081 212.877C304.081 212.323 304.634 212.045 304.911 211.768L307.4 215.649C306.017 215.649 304.634 215.095 303.528 214.817L304.081 212.877ZM224.431 343.997L224.708 345.106L219.453 347.046L216.688 347.324V346.769L218.623 343.997C221.389 342.888 221.389 343.443 224.155 343.997H224.431ZM212.816 143.852C216.411 146.624 217.241 149.396 216.688 159.93C214.475 157.158 213.092 150.782 212.816 143.852ZM215.305 135.813L215.028 138.585L212.816 138.862L215.305 136.09V135.813ZM212.816 139.971V142.743L208.944 142.189L211.986 139.971H212.816ZM212.816 371.164L214.752 350.927L228.58 347.324L214.198 370.609L212.816 371.164ZM213.922 316.553L216.134 315.445C218.07 317.662 216.134 320.989 214.475 323.484C212.816 321.82 212.816 320.989 213.092 317.939L213.922 316.553ZM201.2 314.613L205.625 307.405L212.816 311.564L205.348 323.484C202.975 321.103 201.507 317.965 201.2 314.613ZM201.2 345.938L208.391 339.285L211.709 339.562L212.816 341.502L211.986 347.324L200.923 345.938H201.2ZM189.308 340.393L197.881 335.404L204.519 336.512L205.072 337.344L198.158 343.443C195.461 343.227 192.877 342.268 190.691 340.671H189.308V340.393ZM188.202 332.909L191.244 331.245L192.627 331.523L193.18 332.354L184.053 335.126L181.288 334.295L188.202 332.909ZM177.416 329.028L179.905 323.484C184.053 322.929 185.159 325.147 188.202 326.256L189.308 327.919L184.606 330.968L180.458 331.245L177.692 329.028H177.416ZM169.672 345.66L175.203 335.404C179.075 335.404 179.628 335.404 181.288 337.621C181.841 338.73 181.288 338.176 179.905 338.453L179.352 342.057L185.436 342.888C184.33 345.66 184.053 345.66 182.117 347.324C176.586 347.324 173.82 346.492 169.672 345.383V345.66ZM163.034 331.245L172.991 334.295L173.544 335.681L167.459 343.166L158.056 340.116L163.311 330.968L163.034 331.245ZM124.316 320.712L124.592 319.325L130.123 323.761L130.677 324.87C119.061 333.74 136.761 363.125 156.95 344.274L165.8 347.601C162.481 353.422 156.673 355.917 150.589 359.244C136.208 360.353 116.019 337.067 124.592 320.434L124.316 320.712ZM138.144 324.592V327.365L134.825 324.87L134.272 323.484L137.867 324.592H138.144ZM157.78 341.502L150.589 347.046C136.484 348.71 130.677 338.73 130.4 326.81L133.166 323.484H134.272C141.463 329.028 147.823 337.344 157.227 340.393L157.78 341.502ZM143.952 283.288C142.845 282.457 142.845 282.179 142.016 280.516L144.781 270.259L147.823 267.487L150.036 270.259L144.228 283.565L143.952 283.288ZM142.016 286.892L148.377 272.2L149.483 271.645C152.248 276.635 156.673 278.853 157.78 285.506L148.377 295.485C145.611 293.268 143.675 290.496 142.016 287.169V286.892ZM153.908 299.089L161.928 291.327L165.8 299.644L153.908 299.089ZM173.544 218.698C169.948 226.46 164.97 232.004 161.928 239.489C160.545 232.559 168.566 222.579 171.055 216.481L172.161 215.649L173.544 218.421V218.698ZM173.544 196.522C178.822 194.772 183.576 191.722 187.372 187.651L189.308 193.195L184.33 199.571L173.544 196.799V196.522ZM193.18 197.076L191.244 199.848L189.308 199.294V199.017L192.903 195.69L193.18 197.076ZM190.414 179.889H190.691L193.456 184.879L192.35 187.651C188.755 185.71 188.755 183.493 190.137 179.889H190.414ZM189.308 295.485L193.18 298.258L189.308 296.317V295.485ZM189.308 299.366C190.6 300.103 191.891 300.842 193.18 301.584L184.883 307.405C182.394 306.297 182.117 304.079 181.564 301.861V301.307L189.308 299.366ZM177.692 291.327L181.564 292.991L179.352 294.099H177.416L177.692 291.327ZM177.692 211.768C182.117 212.877 180.734 212.045 181.011 215.649C178.798 214.263 178.522 213.709 177.416 211.768H177.692ZM177.692 283.011V279.407C179.628 280.793 180.458 281.625 181.564 283.565L177.416 283.011H177.692ZM185.436 233.113C183.777 235.054 184.053 234.499 181.564 235.608L183.223 231.727L185.436 233.113ZM185.436 217.035L182.67 219.807C180.458 218.144 181.564 218.698 182.67 216.204L184.33 215.649L185.436 217.035ZM185.159 210.382L181.288 207.333C184.053 208.442 183.223 207.887 184.883 210.105L185.159 210.382ZM177.416 283.565L181.564 286.615C179.352 286.615 178.245 286.06 177.416 283.565ZM189.308 283.565H187.648L186.266 280.793C185.987 280.425 185.711 280.055 185.436 279.685H187.648L189.308 283.288V283.565ZM187.095 209.55L185.436 207.61C187.095 208.996 185.989 207.61 187.095 209.55ZM187.372 275.249L185.436 271.091C185.436 269.705 185.989 268.596 186.266 267.487H186.819L189.308 275.526L187.372 275.249ZM177.139 321.543L177.416 322.098L176.033 327.365C173.267 326.256 170.502 323.206 169.672 319.325L177.139 321.543ZM165.8 327.365L169.672 330.968C166.906 329.859 166.906 329.859 165.8 327.365ZM172.438 291.882L172.991 295.485L169.672 291.327L172.438 291.882ZM168.566 310.732L165.8 303.525C169.119 304.633 171.884 308.792 173.544 311.286L168.566 310.732ZM171.608 239.489H172.714L169.948 243.647C169.395 242.538 169.948 241.707 171.608 240.598V239.489ZM169.672 273.863L168.842 275.526L166.63 273.863L165.8 271.923L168.566 271.645L169.672 273.863ZM142.016 307.405C150.036 312.672 163.311 317.385 165.8 327.365C156.393 322.715 148.236 315.87 142.016 307.405ZM162.481 303.525L165.8 307.405L157.78 303.525H162.481ZM191.244 315.445L185.436 309.346L195.945 299.366L197.328 310.455L191.244 315.445ZM197.328 322.098L198.158 319.325H199.541L201.2 323.484L197.328 322.098ZM202.583 307.405L201.2 303.525C202.03 303.525 203.136 303.525 203.966 304.079L202.583 307.405ZM197.052 172.959L201.2 171.85L198.434 175.731L197.328 172.959H197.052ZM157.78 255.567L154.184 247.528C158.886 248.637 158.056 251.964 157.78 255.567ZM148.1 259.448C144.781 257.231 142.569 252.518 142.569 247.528C149.206 249.191 148.93 251.964 150.312 258.339L148.1 259.448ZM143.952 238.658C138.973 233.945 146.441 215.095 149.483 210.659C151.419 208.442 153.355 208.442 156.12 207.887L158.056 208.164C153.355 216.481 150.312 227.846 148.93 239.489L143.952 238.658ZM136.761 303.525L139.25 307.405L137.038 312.395L135.655 313.781C137.591 314.059 137.867 312.395 140.633 310.455C145.611 318.771 153.355 326.533 161.928 330.968C160.545 333.74 159.162 336.512 157.227 339.285L143.122 330.137C141.463 327.365 143.675 323.761 141.186 321.82C138.697 320.157 135.655 322.652 133.442 321.82L126.528 315.722C128.464 311.286 130.4 307.128 134.272 304.633L136.761 303.525ZM122.933 259.448C123.707 255.417 124.723 251.437 125.975 247.528L127.911 259.448L129.017 265.547L138.42 291.327C130.953 287.446 126.252 278.021 127.081 265.27C125.145 269.428 126.805 275.804 127.081 279.13C122.656 275.526 122.103 267.765 123.209 259.448H122.933ZM116.295 263.606L114.913 258.617V251.964L115.742 250.578L118.508 247.805L117.125 258.894L116.295 263.606ZM390.092 303.525L382.348 300.475L390.092 299.366V303.525ZM182.117 368.114L184.053 367.006L181.841 370.886V368.114H182.117ZM122.38 231.727L119.061 231.173C116.752 230.172 114.76 228.559 113.298 226.507C111.836 224.456 110.96 222.044 110.764 219.53C117.125 220.084 119.061 223.134 122.38 227.015V231.727ZM121.827 231.173C122.38 222.857 115.742 217.312 107.169 217.312C108.828 205.392 119.338 199.294 128.741 195.136H130.4C129.017 210.105 130.123 223.411 124.316 236.44C120.167 246.142 105.233 245.865 106.062 260.834V262.22C108.275 281.902 129.847 286.06 132.889 303.525C101.084 319.603 140.08 388.073 165.247 347.878C169.672 348.71 173.82 350.65 179.628 348.71C182.117 347.324 182.394 345.938 183.777 343.166L192.627 347.601L193.18 348.987C184.883 355.363 179.075 364.233 170.225 370.055C170.225 369.223 170.778 368.392 171.055 367.837L168.566 367.283L167.459 367.837L166.353 373.381C171.331 378.648 186.819 359.798 191.244 356.194C188.478 365.065 182.394 369.5 178.798 377.817L179.905 378.926C186.542 374.213 194.839 360.63 195.945 350.373L205.902 352.036C188.554 376.098 167.881 397.565 144.505 415.794C147.27 407.755 151.142 401.934 153.355 395.004H151.972L150.866 394.172C146.994 402.211 140.08 408.033 138.973 418.844L141.739 421.616C161.652 418.289 195.116 367.837 210.88 353.977C206.731 397.499 183.5 404.152 163.311 430.487C181.564 421.339 192.903 398.053 208.391 385.024C206.731 403.32 202.306 443.793 191.797 451H193.456C205.625 443.238 206.178 412.191 210.05 396.113L211.986 379.48L229.409 355.086C229.963 355.086 230.239 354.531 230.792 354.254C232.728 360.63 241.578 367.006 250.981 365.342L257.895 362.57L275.042 368.946C277.255 393.895 276.425 407.755 260.661 426.328C276.702 418.012 282.786 386.687 277.255 370.055C314.591 374.213 313.208 361.739 306.017 334.572H312.655C311.272 332.909 307.953 334.295 305.464 332.909C304.358 332.077 304.634 332.354 304.081 331.245C312.931 321.266 334.227 331.245 329.525 347.878C335.886 334.018 322.334 321.82 309.059 326.533C314.591 320.157 321.505 314.613 325.1 305.742L326.206 305.188L356.905 337.344H358.841L360.223 335.404L330.908 300.752C333.661 299.613 336.427 298.505 339.205 297.426L337.822 296.594C353.586 298.258 373.498 311.286 389.816 307.128C391.198 304.356 391.475 302.97 390.369 300.475C407.792 300.752 439.044 294.931 449 286.615C422.295 292.366 394.841 293.77 367.691 290.773L345.842 288.278H344.736L350.544 277.744C368.52 277.744 415.536 277.19 425.216 265.824L423.003 263.052L414.706 261.943C413.877 262.775 413.877 263.884 413.877 264.715L420.237 265.547C406.409 269.151 366.861 276.635 353.862 272.2C352.756 270.537 353.862 264.992 353.862 261.111V258.617C372.116 253.072 385.944 240.875 391.475 222.025C394.517 211.214 392.581 197.076 399.495 190.7C403.92 190.977 405.027 192.918 407.792 194.027C406.016 191.792 403.605 190.149 400.878 189.314L395.07 193.195C389.539 195.413 384.008 189.869 375.158 194.027C367.967 187.928 364.095 178.226 354.139 174.622L353.033 172.682L364.925 161.039L353.033 172.127L345.289 168.523L344.736 167.415C348.543 164.273 353 162.02 357.784 160.821C362.568 159.623 367.558 159.507 372.392 160.484L373.775 163.256C373.222 164.365 372.669 164.365 372.392 164.643L368.797 163.811C370.456 164.643 371.839 164.92 373.498 165.197L374.881 163.811V162.148C372.669 160.207 372.116 158.544 367.691 158.544L369.627 155.495C364.648 158.821 354.416 159.93 349.438 162.979L361.053 153.554L362.436 151.891L340.864 164.643C336.361 164.408 332.071 162.649 328.695 159.653H327.589L353.309 142.466L352.756 140.525L323.717 157.712L314.314 155.217L315.144 146.901L382.072 94.5085H383.178C382.897 93.7709 382.621 93.0316 382.348 92.2908C379.583 90.9048 369.627 99.2211 365.755 101.716C351.097 111.141 338.098 123.061 323.441 131.655C329.248 123.893 340.311 116.408 342.247 105.32L339.481 104.765L334.78 108.646L339.758 106.706C333.754 119.491 324.852 130.693 313.761 139.416L312.655 137.199C318.186 128.051 323.164 115.854 320.952 104.488L316.25 101.716L311.548 102.27C314.591 103.379 316.803 103.656 319.016 105.042C320.398 116.131 314.867 123.893 311.825 132.763C311.548 133.318 310.995 133.318 310.719 133.595C308.783 129.991 308.783 128.051 304.634 127.496V125.279C305.188 123.893 306.294 122.507 307.4 121.398L309.059 120.012C309.612 121.398 309.889 120.843 309.889 122.784C310.719 121.952 310.719 121.121 310.995 120.012L308.506 118.903L302.698 125.279C297.449 121.287 291.417 118.453 284.998 116.962C288.87 108.646 301.039 95.6173 294.955 85.0834C287.211 72.0545 260.938 87.0238 251.534 97.0034C250.152 98.3894 249.045 99.7755 248.769 100.884L251.534 98.6666C260.938 91.4592 286.105 74.8266 291.636 88.1327C297.167 95.6173 286.105 110.309 283.339 115.854C272.781 114.655 262.16 114.1 251.534 114.19C240.472 114.468 228.856 115.854 217.517 119.735C211.986 121.675 188.202 135.813 187.095 135.536L176.309 125.279L153.631 113.913V115.022L152.248 116.408L181.288 140.803L176.863 143.575C165.911 134.239 152.938 127.595 138.973 124.17L135.931 124.724L167.183 144.961L169.395 147.733C161.928 150.782 158.609 157.435 152.525 161.593C142.562 156.508 132.203 152.244 121.55 148.842L120.72 151.336L142.845 165.751H144.228C142.845 166.306 141.463 167.415 140.356 168.246C138.697 174.068 135.102 180.998 132.059 189.591C120.997 198.739 106.616 197.908 104.403 216.481C100.808 217.59 98.3188 217.867 95 220.084V222.857C102.484 227.806 110.696 231.547 119.337 233.945L122.103 231.173H121.827ZM254.023 103.656L255.683 103.934H252.364C254.023 100.607 259.278 99.7755 263.98 100.053V102.27L254.023 102.825V103.656ZM260.938 107.815L265.639 106.429C267.575 103.102 268.681 99.4983 267.575 96.1718C262.873 95.3401 260.108 96.449 255.683 98.3894L253.194 102.27L252.364 103.934L253.194 104.765C254.853 106.151 256.513 106.429 259.831 106.151C260.938 107.815 259.831 107.26 258.172 107.537L260.938 107.815ZM375.434 143.852C374.789 144.129 374.144 144.407 373.498 144.683L376.817 146.069L371.562 155.772C374.328 152.723 377.094 150.228 378.2 145.515L375.434 143.852ZM346.672 299.366C345.566 297.149 343.906 295.763 342.8 295.485L346.672 299.366ZM330.908 347.324L327.036 349.541H330.078L330.908 347.324ZM346.672 299.366C348.962 302.119 350.68 305.303 351.725 308.73C352.77 312.158 353.12 315.76 352.756 319.325C357.458 309.623 352.203 303.525 346.672 299.366Z" fill="white"/>
</svg>
