<svg width="512" height="512" viewBox="0 0 512 512" fill="none" xmlns="http://www.w3.org/2000/svg">
<circle cx="256" cy="256" r="256" fill="#FF0002"/>
<path d="M389.743 221.104C381.007 212.093 368.588 207.169 353.425 207.169C334.58 207.169 320.11 214.822 311.778 229.161V158H268.08V353H311.778V284.438C311.778 268.467 315.056 258.229 319.98 252.222C324.745 246.215 331.446 243.89 338.681 243.89C345.107 243.89 350.147 245.941 353.699 249.623C357.252 253.45 359.302 259.327 359.302 267.514V352.856H403V258.908C403 242.937 398.35 229.955 389.758 221.075L389.743 221.104ZM194.345 207.169C175.5 207.169 161.016 214.822 152.698 229.161V158H109V353H152.698V284.438C152.698 268.467 155.961 258.229 160.886 252.222C165.651 246.215 172.352 243.89 179.601 243.89C186.013 243.89 191.067 245.941 194.619 249.623C198.157 253.45 200.208 259.327 200.208 267.514V352.856H243.906V258.908C243.906 242.937 239.27 229.955 230.534 220.945C221.927 211.934 209.493 207.154 194.345 207.154L194.345 207.169Z" fill="white"/>
</svg>
