<svg width="512" height="512" viewBox="0 0 512 512" fill="none" xmlns="http://www.w3.org/2000/svg">
<circle cx="256" cy="256" r="256" fill="#279BF0"/>
<path fill-rule="evenodd" clip-rule="evenodd" d="M192.917 322.884C212.146 335.024 234.667 341.442 257.535 341.095C280.403 340.748 302.751 333.81 321.634 321.15C340.69 308.489 355.588 290.452 364.597 269.466C373.432 248.307 376.204 225.24 372.219 202.693C368.235 180.147 357.841 159.161 342.249 142.512C326.658 125.862 306.562 113.895 284.387 108.518C262.213 102.968 238.825 104.009 217.344 111.467C195.689 118.924 176.806 132.626 162.773 150.663C146.662 171.475 138 194.542 138 240.155V407H192.917V322.884ZM192.917 222.985C192.917 238.768 198.807 253.857 209.201 265.477C219.769 277.097 234.321 284.555 249.913 286.116C265.504 287.503 281.096 283.341 293.742 273.975C306.389 264.61 315.05 250.908 318.169 235.473C321.287 220.037 318.515 204.081 310.373 190.553C302.404 177.025 289.584 167.139 274.513 162.63C259.441 157.947 243.329 159.161 229.124 165.925C214.918 172.516 203.658 184.309 197.768 198.878C194.476 206.509 192.917 214.661 192.917 222.985Z" fill="white"/>
</svg>
