<svg width="512" height="512" viewBox="0 0 512 512" fill="none" xmlns="http://www.w3.org/2000/svg">
<rect x="103.424" y="79" width="331.776" height="360" fill="white"/>
<path d="M346.492 203.293C346.492 177.693 329.476 153.599 290.806 153.599H197.996V252.987H290.806C329.476 252.987 346.492 228.893 346.492 203.293Z" fill="#327CB6"/>
<path d="M454.767 260.518C454.767 221.365 477.97 189.741 512 177.694C477.97 73.7882 378.973 0 262.961 0C117.559 0 0 114.447 0 256C0 397.553 117.559 512 262.961 512C375.879 512 471.783 442.729 508.906 344.847C474.876 329.788 454.767 299.671 454.767 260.518ZM422.284 411.106H349.583L255.227 307.2H196.447V411.106H137.668V97.8824C188.713 97.8824 239.758 97.8824 290.804 97.8824C366.598 97.8824 406.816 147.576 406.816 201.788C406.816 243.953 386.707 287.624 324.834 299.671L422.284 406.588V411.106Z" fill="#327CB6"/>
</svg>
