<svg width="512" height="512" viewBox="0 0 512 512" fill="none" xmlns="http://www.w3.org/2000/svg">
<circle cx="256" cy="256" r="256" fill="#00E3AE"/>
<path d="M173.106 211.57L152.807 226.619C144.862 213.613 133.44 207.11 118.543 207.11C116.68 207.11 114.57 207.296 112.211 207.668C109.852 208.039 107.183 208.783 104.204 209.897C101.224 210.888 98.7411 212.561 96.7546 214.914C94.8924 217.144 93.9613 219.869 93.9613 223.089C93.9613 225.071 94.3958 226.867 95.2648 228.477C96.1338 229.964 97.127 231.203 98.2445 232.194C99.486 233.061 101.286 233.928 103.645 234.795C106.004 235.662 108.114 236.343 109.976 236.839C111.839 237.334 114.508 237.953 117.984 238.697L131.764 241.669C137.723 242.908 142.876 244.333 147.221 245.943C151.69 247.553 156.16 249.845 160.629 252.817C165.098 255.666 168.512 259.444 170.871 264.151C173.23 268.735 174.409 274.185 174.409 280.502C174.409 286.695 173.168 292.331 170.685 297.41C168.326 302.365 165.222 306.39 161.374 309.487C157.649 312.584 153.242 315.185 148.152 317.29C143.186 319.396 138.22 320.821 133.254 321.564C128.413 322.431 123.509 322.865 118.543 322.865C106.5 322.865 95.2648 320.573 84.8364 315.99C74.408 311.407 66.4625 304.346 61 294.809L81.6707 280.502C90.4852 293.632 104.079 300.197 122.453 300.197C129.902 300.197 135.985 298.71 140.703 295.738C145.421 292.641 147.78 288.368 147.78 282.917C147.78 277.963 145.917 274.432 142.193 272.327C138.593 270.221 132.013 268.115 122.453 266.009L105.693 262.293C101.721 261.426 98.2445 260.559 95.2648 259.692C92.2853 258.701 88.9334 257.277 85.2089 255.419C81.6086 253.437 78.629 251.207 76.2702 248.73C74.0356 246.252 72.1113 243.094 70.4973 239.254C68.8834 235.29 68.0764 230.831 68.0764 225.876C68.0764 213.861 72.6699 204.076 81.8569 196.52C91.168 188.84 103.893 185 120.032 185C142.379 185 160.07 193.857 173.106 211.57Z" fill="white"/>
<path d="M214.733 188.345H238.942V287.934C238.942 290.412 238.692 292.889 238.197 295.366C237.824 297.844 236.769 300.816 235.031 304.285C233.416 307.629 231.183 310.602 228.326 313.203C225.47 315.68 221.375 317.786 216.035 319.521C210.699 321.379 204.428 322.308 197.227 322.308C191.89 322.308 186.798 321.75 181.958 320.635V296.481C187.545 297.72 191.89 298.339 194.994 298.339C199.462 298.339 203.124 297.72 205.98 296.481C208.836 295.119 210.822 293.199 211.94 290.721C213.182 288.12 213.926 285.828 214.173 283.847C214.547 281.741 214.733 279.078 214.733 275.857V188.345Z" fill="white"/>
<path d="M361.129 188.345H383.475V234.423C390.553 227.363 399.427 223.833 410.106 223.833C421.279 223.833 430.9 228.354 438.97 237.396C447.039 246.439 451.074 258.144 451.074 272.513C451.074 287.996 446.729 300.197 438.039 309.116C429.472 317.91 419.727 322.308 408.801 322.308C398.993 322.308 390.49 318.158 383.288 309.859V319.521H361.129V188.345ZM383.104 270.84C383.104 280.626 385.151 288.12 389.248 293.323C393.346 298.525 398.87 301.126 405.821 301.126C412.155 301.126 417.431 298.463 421.65 293.137C425.995 287.81 428.168 280.378 428.168 270.84C428.168 263.904 426.121 257.711 422.023 252.261C418.052 246.81 412.339 244.085 404.89 244.085C398.312 244.085 393.036 246.624 389.062 251.703C385.09 256.782 383.104 263.161 383.104 270.84Z" fill="white"/>
<path d="M326.198 224.663C315.447 225.464 305.76 233.977 300.46 240.208C295.166 234.024 285.48 225.464 274.728 224.663C255.862 223.264 245.176 235.524 245.176 254.926C245.176 270.444 255.348 285.299 269.636 299.869C282.233 312.755 300.43 326 300.43 326C300.43 326 318.63 312.718 331.237 299.869C345.513 285.299 355.688 270.444 355.688 254.926C355.714 235.505 345.065 223.245 326.198 224.663Z" fill="white"/>
</svg>
