<svg width="512" height="512" viewBox="0 0 512 512" fill="none" xmlns="http://www.w3.org/2000/svg">
<circle cx="256" cy="256" r="256" fill="#F3F3F3"/>
<path d="M225.379 296.739V387.809C225.379 393.396 231.404 396.833 236.28 393.968L312.038 348.431C316.629 345.712 316.629 338.981 312.038 336.261L236.28 290.725C231.547 287.86 225.379 291.297 225.379 296.739ZM225.379 124.048V215.119C225.379 220.703 231.404 224.139 236.28 221.275L312.038 175.741C316.629 173.019 316.629 166.29 312.038 163.571L236.28 118.034C231.547 115.17 225.379 118.606 225.379 124.048ZM138 210.395V301.465C138 307.049 144.026 310.486 148.904 307.622L224.66 262.088C229.25 259.365 229.25 252.637 224.66 249.915L148.904 204.378C144.026 201.516 138 204.958 138 210.395ZM312.897 210.395V301.465C312.897 307.049 318.923 310.486 323.802 307.622L399.557 262.088C404.148 259.365 404.148 252.637 399.557 249.915L323.802 204.378C318.923 201.516 312.897 204.956 312.897 210.395Z" fill="#E64920"/>
</svg>
