<svg width="512" height="512" viewBox="0 0 512 512" fill="none" xmlns="http://www.w3.org/2000/svg">
<circle cx="256" cy="256" r="256" fill="#FFE000"/>
<path d="M255.62 389C331.073 389 392.24 329.457 392.24 256C392.24 182.543 331.073 123 255.62 123C180.167 123 119 182.543 119 256C119 329.457 180.167 389 255.62 389Z" fill="white"/>
<path d="M192.625 319.147V296.429C192.625 293.157 196.057 290.953 199.137 292.247C213.498 298.323 229.239 301.264 246.381 301.264C269.853 301.264 283.444 294.953 283.444 283.83C283.444 273.894 274.494 269.081 256.261 269.081H230.704C229.471 269.092 228.284 268.615 227.402 267.753C226.52 266.891 226.016 265.715 225.999 264.482V243.005C225.999 240.459 228.105 238.406 230.704 238.406H256.261C271.093 238.406 278.504 233.903 278.504 225.175C278.504 215.549 268.003 210.736 247.001 210.736C230.843 210.736 216.268 213.175 203.286 218.223C202.592 218.503 201.841 218.609 201.097 218.533C200.352 218.457 199.638 218.202 199.015 217.788C198.391 217.374 197.878 216.815 197.52 216.158C197.161 215.502 196.967 214.768 196.955 214.02V192.35C196.955 189.527 198.752 187.045 201.436 185.976C216.45 180.029 234.992 177.056 256.571 177.056C275.424 177.056 291.176 180.96 303.837 188.778C316.498 196.597 322.989 206.533 322.989 218.255C322.989 233.603 316.594 244.032 303.826 249.305C302.842 249.711 302.885 251.112 303.879 251.476C318.39 256.866 329.169 268.525 329.169 286.215C329.169 300.355 322.069 312.088 307.857 321.404C293.956 330.431 275.413 334.934 252.561 334.934C230.362 334.934 211.99 331.693 196.987 325.447C195.717 324.946 194.623 324.079 193.846 322.955C193.069 321.832 192.644 320.502 192.625 319.136V319.147Z" fill="#18160B"/>
</svg>
